<?xml version="1.0" standalone="no"?>
<!DOCTYPE svg PUBLIC "-//W3C//DTD SVG 20010904//EN"
 "http://www.w3.org/TR/2001/REC-SVG-20010904/DTD/svg10.dtd">
<svg version="1.0" xmlns="http://www.w3.org/2000/svg"
 width="210.000000pt" height="210.000000pt" viewBox="0 0 210.000000 210.000000"
 preserveAspectRatio="xMidYMid meet">
<metadata>
Created by potrace 1.11, written by Peter Selinger 2001-2013
</metadata>
<g transform="translate(0.000000,210.000000) scale(0.100000,-0.100000)"
fill="#000000" stroke="none">
<path d="M733 2084 c-52 -26 -58 -54 -58 -305 0 -225 0 -226 20 -214 22 14
100 12 119 -4 6 -5 27 -38 46 -72 l35 -61 3 122 c1 68 0 125 -2 128 -3 2 -22
-9 -43 -25 -55 -43 -60 -45 -83 -33 -37 20 -23 46 55 105 74 55 75 57 75 101
0 34 -3 43 -13 37 -7 -4 -32 -21 -56 -37 -33 -23 -46 -27 -59 -19 -35 21 -19
51 53 106 76 57 86 77 60 126 -28 56 -92 74 -152 45z"/>
<path d="M1260 1912 c-23 -7 -28 -22 -21 -50 6 -21 13 -26 36 -26 26 0 31 4
36 36 5 31 3 37 -16 40 -11 3 -27 2 -35 0z"/>
<path d="M1260 1762 c-8 -2 -25 -13 -37 -24 -12 -11 -26 -18 -31 -14 -13 8
-49 -33 -57 -64 -19 -79 -15 -99 34 -162 26 -34 51 -61 56 -60 6 1 19 28 31
59 12 31 28 62 37 68 18 13 101 14 113 2 16 -16 21 -4 17 40 -5 64 -22 95 -62
114 -19 9 -39 22 -45 30 -12 15 -31 19 -56 11z"/>
<path d="M529 1494 c-3 -5 -5 -339 -5 -742 1 -638 3 -734 16 -742 9 -6 220
-10 516 -10 468 0 502 1 510 17 9 22 12 1483 2 1483 -3 0 -21 -39 -40 -86 -52
-134 -76 -135 -129 -6 -20 50 -41 87 -49 87 -8 0 -27 -33 -44 -76 -33 -80 -51
-109 -70 -109 -13 0 -12 0 -104 112 l-63 78 -62 -78 c-64 -80 -95 -112 -108
-112 -14 0 -34 26 -84 109 -31 51 -55 81 -64 79 -8 -2 -29 -38 -46 -81 -38
-94 -54 -113 -83 -98 -11 6 -24 21 -27 33 -4 13 -14 41 -24 63 -9 22 -22 51
-27 64 -6 14 -13 21 -15 15z m839 -382 c53 -30 56 -45 57 -316 1 -280 -3 -303
-61 -331 -26 -12 -82 -15 -322 -15 l-290 0 -30 25 c-17 14 -34 38 -39 53 -5
15 -9 138 -8 274 1 233 2 249 21 275 12 16 35 33 52 38 45 16 591 12 620 -3z"/>
<path d="M762 1038 c-18 -18 -17 -494 1 -505 6 -4 135 -8 286 -8 216 0 277 2
288 13 18 18 19 482 1 500 -17 17 -559 17 -576 0z m502 -153 c17 -18 12 -42
-13 -54 -9 -4 -102 -7 -207 -7 -144 1 -196 5 -208 15 -20 17 -20 25 0 45 23
23 405 24 428 1z m-8 -143 c19 -13 23 -40 7 -53 -17 -15 -386 -22 -414 -8 -25
12 -30 36 -13 54 13 12 49 15 212 15 108 0 202 -4 208 -8z"/>
</g>
</svg>
