<svg data-v-5f19e91b="" xmlns="http://www.w3.org/2000/svg" width="474" height="81" viewBox="0 0 474 81"><!----> <!----> <!----> <g data-v-5f19e91b="" id="80ebc616-8659-5992-a2b8-66a7589467f1" fill="black" transform="matrix(5.571030403879727,0,0,5.571030403879727,86.33513508670868,-10.62107554714175)"><path d="M0.69 14.35L8.02 14.35L8.02 11.66L6.66 11.66L6.66 13.48L3.50 13.48L3.50 5.36L4.54 5.36L4.54 4.58L0.69 4.58L0.69 5.36L1.72 5.36L1.72 13.57L0.69 13.57ZM11.09 5.75C11.73 5.75 12.11 5.35 12.11 4.79L12.11 4.72C12.11 4.16 11.73 3.75 11.09 3.75C10.44 3.75 10.07 4.16 10.07 4.72L10.07 4.79C10.07 5.35 10.44 5.75 11.09 5.75ZM9.28 14.35L12.89 14.35L12.89 13.57L11.93 13.57L11.93 6.90L9.28 7.42L9.28 8.06L10.25 8.25L10.25 13.57L9.28 13.57ZM17.02 14.52C18.70 14.52 19.77 13.62 19.77 12.28C19.77 10.96 18.98 10.33 17.46 9.98L16.73 9.81C15.97 9.65 15.62 9.28 15.62 8.71C15.62 8.09 16.09 7.77 16.93 7.77C17.98 7.77 18.44 8.13 18.44 8.85L18.44 9.25L19.57 9.25L19.57 7.07L18.44 7.07L18.44 7.73L18.38 7.73C18.23 7.27 17.64 6.90 16.70 6.90C15.13 6.90 14.11 7.71 14.11 9.09C14.11 10.33 14.85 11.06 16.38 11.40L17.16 11.58C17.89 11.75 18.26 12.10 18.26 12.63C18.26 13.34 17.74 13.65 16.74 13.65C15.64 13.65 15.19 13.17 15.19 12.42L15.19 12.17L14.06 12.17L14.06 14.35L15.19 14.35L15.19 13.62L15.25 13.62C15.43 14.07 16.06 14.52 17.02 14.52ZM23.31 14.46C24.12 14.46 24.92 14.32 25.24 14.17L25.24 13.51L23.46 13.51L23.46 7.92L25.24 7.92L25.24 7.07L23.46 7.07L23.46 5.12L22.60 5.12L22.13 6.36C21.95 6.83 21.78 7.07 21.06 7.07L20.82 7.07L20.82 7.92L21.78 7.92L21.78 13.03C21.78 14.03 22.20 14.46 23.31 14.46ZM29.02 14.35L32.00 14.35L32.00 13.57L30.80 13.57L31.57 11.26L35.14 11.26L35.94 13.57L34.73 13.57L34.73 14.35L38.50 14.35L38.50 13.57L37.77 13.57L34.61 4.58L32.91 4.58L29.75 13.57L29.02 13.57ZM33.33 5.95L33.40 5.95L34.90 10.44L31.82 10.44ZM42.41 14.52C44.09 14.52 45.15 13.62 45.15 12.28C45.15 10.96 44.37 10.33 42.84 9.98L42.11 9.81C41.36 9.65 41.01 9.28 41.01 8.71C41.01 8.09 41.47 7.77 42.31 7.77C43.36 7.77 43.82 8.13 43.82 8.85L43.82 9.25L44.95 9.25L44.95 7.07L43.82 7.07L43.82 7.73L43.76 7.73C43.61 7.27 43.02 6.90 42.08 6.90C40.52 6.90 39.49 7.71 39.49 9.09C39.49 10.33 40.24 11.06 41.76 11.40L42.55 11.58C43.27 11.75 43.64 12.10 43.64 12.63C43.64 13.34 43.12 13.65 42.13 13.65C41.02 13.65 40.57 13.17 40.57 12.42L40.57 12.17L39.44 12.17L39.44 14.35L40.57 14.35L40.57 13.62L40.63 13.62C40.81 14.07 41.44 14.52 42.41 14.52ZM49.45 14.52C51.13 14.52 52.19 13.62 52.19 12.28C52.19 10.96 51.41 10.33 49.88 9.98L49.15 9.81C48.40 9.65 48.05 9.28 48.05 8.71C48.05 8.09 48.51 7.77 49.35 7.77C50.40 7.77 50.86 8.13 50.86 8.85L50.86 9.25L52.00 9.25L52.00 7.07L50.86 7.07L50.86 7.73L50.81 7.73C50.65 7.27 50.06 6.90 49.13 6.90C47.56 6.90 46.54 7.71 46.54 9.09C46.54 10.33 47.28 11.06 48.80 11.40L49.59 11.58C50.32 11.75 50.68 12.10 50.68 12.63C50.68 13.34 50.16 13.65 49.17 13.65C48.06 13.65 47.61 13.17 47.61 12.42L47.61 12.17L46.48 12.17L46.48 14.35L47.61 14.35L47.61 13.62L47.67 13.62C47.85 14.07 48.48 14.52 49.45 14.52ZM55.30 5.75C55.94 5.75 56.32 5.35 56.32 4.79L56.32 4.72C56.32 4.16 55.94 3.75 55.30 3.75C54.66 3.75 54.28 4.16 54.28 4.72L54.28 4.79C54.28 5.35 54.66 5.75 55.30 5.75ZM53.49 14.35L57.11 14.35L57.11 13.57L56.14 13.57L56.14 6.90L53.49 7.42L53.49 8.06L54.46 8.25L54.46 13.57L53.49 13.57ZM61.24 14.52C62.92 14.52 63.98 13.62 63.98 12.28C63.98 10.96 63.20 10.33 61.67 9.98L60.94 9.81C60.19 9.65 59.84 9.28 59.84 8.71C59.84 8.09 60.30 7.77 61.14 7.77C62.19 7.77 62.65 8.13 62.65 8.85L62.65 9.25L63.78 9.25L63.78 7.07L62.65 7.07L62.65 7.73L62.59 7.73C62.44 7.27 61.85 6.90 60.91 6.90C59.35 6.90 58.32 7.71 58.32 9.09C58.32 10.33 59.07 11.06 60.59 11.40L61.38 11.58C62.10 11.75 62.47 12.10 62.47 12.63C62.47 13.34 61.95 13.65 60.96 13.65C59.85 13.65 59.40 13.17 59.40 12.42L59.40 12.17L58.27 12.17L58.27 14.35L59.40 14.35L59.40 13.62L59.46 13.62C59.64 14.07 60.27 14.52 61.24 14.52ZM67.52 14.46C68.33 14.46 69.13 14.32 69.45 14.17L69.45 13.51L67.68 13.51L67.68 7.92L69.45 7.92L69.45 7.07L67.68 7.07L67.68 5.12L66.81 5.12L66.35 6.36C66.16 6.83 66.00 7.07 65.27 7.07L65.03 7.07L65.03 7.92L66.00 7.92L66.00 13.03C66.00 14.03 66.42 14.46 67.52 14.46Z"></path></g> <!----> <g data-v-5f19e91b="" id="5334134c-0941-5892-42cd-75df63196b03" transform="matrix(0.9459890577528212,0,0,0.9459890577528212,-15.17138829508977,-9.676168017744203)" stroke="none" fill="black"><g><path d="M77.343,54.012c-0.086,0.01-0.174,0.012-0.263,0.013c-0.261,0.011-0.518,0.027-0.771,0.053v-0.026   c-0.02,0.001-0.039,0.007-0.059,0.009V13c0-1.104-0.896-2-2-2H19c-1.104,0-2,0.896-2,2v58.25c0,0.128,0.015,0.251,0.038,0.372   c0.001,0.007,0,0.015,0.002,0.021c0.035,0.174,0.098,0.335,0.174,0.489c0.018,0.036,0.037,0.07,0.058,0.106   c0.089,0.154,0.19,0.301,0.316,0.426l17.497,17.498c0.093,0.093,0.195,0.176,0.305,0.249c0.039,0.026,0.082,0.044,0.122,0.066   c0.073,0.042,0.145,0.086,0.223,0.118c0.052,0.021,0.107,0.033,0.161,0.05c0.07,0.022,0.139,0.049,0.212,0.063   c0.125,0.025,0.251,0.038,0.378,0.038c0.005,0.001,0.009,0.002,0.014,0.002H55c0.034,0,0.065-0.009,0.1-0.01   c0.235,0.199,0.38,0.313,0.38,0.313c3.763,3.146,8.171,5.088,12.617,5.088c11.651,0.002,23.089-13.289,23.089-26.829   C91.186,58.192,82.711,54.033,77.343,54.012z M72.25,15v40.691c-0.075,0.054-0.124,0.091-0.124,0.091v-0.001   c-0.551,0.403-1.062,0.708-1.533,0.947c0.336-3.074-0.063-7.637-4.244-11.028c-0.797-0.652-1.987-0.531-2.64,0.278   c-0.65,0.803-0.526,1.986,0.279,2.637c3.293,2.67,3.135,6.504,2.735,8.615c-0.82-0.283-1.94-0.82-3.201-1.851   c-1.075-0.884-2.721-1.371-4.629-1.371C53.521,54.009,45,58.163,45,69.313c0,6.315,2.506,12.555,6.344,17.438H38.5v-15.5   c0-1.104-0.896-2-2-2H21V15H72.25z M34.5,73.25v10.672L23.829,73.25H34.5z M68.097,92.394c-9.581,0-19.345-11.646-19.345-23.081   c0-8.475,6.063-11.552,10.142-11.552c1.192,0,1.956,0.278,2.251,0.524c3.586,2.926,6.619,3.01,6.952,3.01   c0.334,0,3.366-0.084,6.944-3.014c0.297-0.242,1.063-0.521,2.26-0.521c4.072,0,10.135,3.077,10.135,11.553   C87.436,80.747,77.674,92.394,68.097,92.394z"></path><path fill="#000000" d="M81.074,66.521c-1.102,0.036-1.966,0.96-1.934,2.062c0.012,0.394,0.193,9.685-7.842,13.41   c-1.003,0.465-1.438,1.653-0.974,2.655c0.338,0.73,1.061,1.159,1.815,1.159c0.282,0,0.568-0.06,0.84-0.186   c10.476-4.856,10.176-16.675,10.158-17.176C83.099,67.345,82.168,66.476,81.074,66.521z"></path><path fill="#000000" d="M42.281,26h24.625c1.104,0,2-0.896,2-2s-0.896-2-2-2H42.281c-1.104,0-2,0.896-2,2S41.177,26,42.281,26z"></path><path fill="#000000" d="M27.805,29.914c0.39,0.391,0.902,0.586,1.414,0.586s1.024-0.195,1.414-0.586l7.125-7.125   c0.781-0.781,0.781-2.047,0-2.828c-0.78-0.781-2.048-0.781-2.828,0l-5.711,5.71l-1.461-1.46c-0.78-0.781-2.048-0.781-2.828,0   c-0.781,0.781-0.781,2.047,0,2.828L27.805,29.914z"></path><path fill="#000000" d="M42.281,41.625h24.625c1.104,0,2-0.896,2-2s-0.896-2-2-2H42.281c-1.104,0-2,0.896-2,2   S41.177,41.625,42.281,41.625z"></path><path fill="#000000" d="M35.758,35.586c-0.78-0.781-2.048-0.781-2.828,0l-2.148,2.148l-2.148-2.148   c-0.78-0.781-2.048-0.781-2.828,0c-0.781,0.781-0.781,2.047,0,2.828l2.148,2.148l-2.148,2.148c-0.781,0.781-0.781,2.047,0,2.828   c0.39,0.391,0.902,0.586,1.414,0.586s1.024-0.195,1.414-0.586l2.148-2.148l2.148,2.148c0.39,0.391,0.902,0.586,1.414,0.586   s1.024-0.195,1.414-0.586c0.781-0.781,0.781-2.047,0-2.828l-2.148-2.148l2.148-2.148C36.539,37.633,36.539,36.367,35.758,35.586z"></path></g></g></svg>