<svg data-v-1084b650="" xmlns="http://www.w3.org/2000/svg" viewBox="0 0 300 300"><!----> <!----> <rect data-v-1084b650="" fill="#FFFFFF" x="0" y="0" width="300px" height="300px" class="logo-background-square"></rect> <!----> <!----> <g data-v-1084b650="" id="51b8aba0-565e-7e71-2aef-0cbcb3489ca9" fill="#000000" stroke="none" transform="matrix(0.7499999999999998,0,0,0.7499999999999998,37.50000000000003,37.50000000000003)"><svg xmlns="http://www.w3.org/2000/svg" viewBox="0 0 64 64" x="0px" y="0px"><g><path d="M22,33V45a3,3,0,0,0,3,3H39a3,3,0,0,0,3-3V33a3,3,0,0,0-3-3H25A3,3,0,0,0,22,33Zm18,0V45a1,1,0,0,1-1,1H25a1,1,0,0,1-1-1V33a1,1,0,0,1,1-1H39A1,1,0,0,1,40,33Z"></path><path d="M27,38H37a1,1,0,0,0,0-2H27a1,1,0,0,0,0,2Z"></path><path d="M27,42H37a1,1,0,0,0,0-2H27a1,1,0,0,0,0,2Z"></path><path d="M25,2a5.006,5.006,0,0,0-5,5V18.807l-.071-.178A1,1,0,0,0,19,18H17a1,1,0,0,0-1,1V59a3,3,0,0,0,3,3H45a3,3,0,0,0,3-3V19a1,1,0,0,0-1-1H45a1,1,0,0,0-.929.629L44,18.807V18c0-3.281-1.079-5.357-3-5.874V8a1,1,0,0,0-1-1H36a1,1,0,0,0-1,1v4.126c-1.921.517-3,2.593-3,5.874a1,1,0,0,0-.781.375L30,19.9V7A5.006,5.006,0,0,0,25,2Zm0,2a3,3,0,0,1,3,3v.5l-3.6,2.7a1,1,0,1,0,1.2,1.6L28,10v2.5l-3.6,2.7a1,1,0,1,0,1.2,1.6L28,15v7.058l-2.143-3.572A1,1,0,0,0,25,18H23a1,1,0,0,0-.929.629L22,18.807V7A3,3,0,0,1,25,4ZM37,9h2v2H37Zm-1,5a1,1,0,0,0,1-1h2a1,1,0,0,0,1,1c1.74,0,2,2.506,2,4v.807l-.071-.178A1,1,0,0,0,41,18H39a1,1,0,0,0-.929.629l-1.362,3.406L34,18.648V18C34,16.506,34.26,14,36,14Zm-3.52,6,3.739,4.625a1.01,1.01,0,0,0,.927.364,1,1,0,0,0,.783-.618L39.677,20h.646l1.748,4.371a1,1,0,0,0,1.858,0L45.677,20H46V59a1,1,0,0,1-1,1H19a1,1,0,0,1-1-1V20h.323l1.748,4.371a1,1,0,0,0,1.858,0L23.677,20h.757l2.709,4.515a1,1,0,0,0,.79.483,1.018,1.018,0,0,0,.848-.373Z"></path></g></svg></g></svg>