<svg data-v-1084b650="" xmlns="http://www.w3.org/2000/svg" viewBox="0 0 300 300"><!----> <!----> <rect data-v-1084b650="" fill="#F39305" x="0" y="0" width="300px" height="300px" class="logo-background-square"></rect> <!----> <!----> <g data-v-1084b650="" id="dfa09f11-1262-d2ba-96d0-058e163bc9a1" fill="#F03C05" stroke="none" transform="matrix(0.7999999999999998,0,0,0.7999999999999998,30.00000000000003,30.00000000000003)"><svg xmlns="http://www.w3.org/2000/svg" viewBox="0 0 64 64" x="0px" y="0px"><g><path d="M38.071,18.629A1,1,0,0,1,39,18h2a1,1,0,0,1,.929.629l.071.178V18c0-1.494-.26-4-2-4a1,1,0,0,1-1-1H37a1,1,0,0,1-1,1c-1.74,0-2,2.506-2,4v.648l2.709,3.387Z"></path><path d="M23,18h2a1,1,0,0,1,.857.485L28,22.057V15l-2.4,1.8a1,1,0,0,1-1.2-1.6L28,12.5V10l-2.4,1.8a1,1,0,0,1-1.2-1.6L28,7.5V7a3,3,0,0,0-6,0V18.807l.071-.178A1,1,0,0,1,23,18Z"></path><rect x="37" y="9" width="2" height="2"></rect><path d="M45.677,20l-1.748,4.371a1,1,0,0,1-1.858,0L40.323,20h-.646l-1.748,4.371a1,1,0,0,1-.783.618,1.01,1.01,0,0,1-.927-.364L32.48,20l-3.7,4.625a1.018,1.018,0,0,1-.848.373,1,1,0,0,1-.79-.483L24.434,20h-.757l-1.748,4.371a1,1,0,0,1-1.858,0L18.323,20H18V59a1,1,0,0,0,1,1H45a1,1,0,0,0,1-1V20ZM42,45a3,3,0,0,1-3,3H25a3,3,0,0,1-3-3V33a3,3,0,0,1,3-3H39a3,3,0,0,1,3,3Z"></path><path d="M39,32H25a1,1,0,0,0-1,1V45a1,1,0,0,0,1,1H39a1,1,0,0,0,1-1V33A1,1,0,0,0,39,32ZM37,42H27a1,1,0,0,1,0-2H37a1,1,0,0,1,0,2Zm0-4H27a1,1,0,0,1,0-2H37a1,1,0,0,1,0,2Z"></path></g></svg></g></svg>