<svg data-v-5f19e91b="" xmlns="http://www.w3.org/2000/svg" width="396" height="35" viewBox="0 0 396 35"><!----> <!----> <!----> <g data-v-5f19e91b="" id="51d49d00-16d2-3a59-abc9-c76f66c80f86" fill="white" transform="matrix(5.32859669452762,0,0,5.32859669452762,31.241055963698102,-26.751845288930845)"><path d="M1.16 13.78L1.16 2.80L2.88 2.80L2.88 12.28L6.32 12.28L6.32 13.78L1.16 13.78ZM7.60 13.78L7.60 2.80L9.30 2.80L9.30 13.78L7.60 13.78ZM14.21 13.92L14.21 13.92Q13.42 13.92 12.72 13.63L12.72 13.63L12.72 13.63Q12.02 13.34 11.50 12.66L11.50 12.66L11.50 12.66Q10.99 11.98 10.80 10.87L10.80 10.87L12.24 10.37L12.24 10.37Q12.43 11.44 12.96 11.95L12.96 11.95L12.96 11.95Q13.49 12.46 14.22 12.46L14.22 12.46L14.22 12.46Q14.89 12.46 15.24 12.06L15.24 12.06L15.24 12.06Q15.59 11.66 15.59 10.88L15.59 10.88L15.59 10.88Q15.59 10.30 15.35 9.90L15.35 9.90L15.35 9.90Q15.11 9.49 14.73 9.21L14.73 9.21L14.73 9.21Q14.36 8.94 13.69 8.57L13.69 8.57L13.53 8.48L13.53 8.48Q12.79 8.07 12.33 7.73L12.33 7.73L12.33 7.73Q11.86 7.39 11.53 6.84L11.53 6.84L11.53 6.84Q11.20 6.28 11.20 5.48L11.20 5.48L11.20 5.48Q11.20 4.16 11.94 3.41L11.94 3.41L11.94 3.41Q12.67 2.66 14.10 2.66L14.10 2.66L14.10 2.66Q14.80 2.66 15.42 2.91L15.42 2.91L15.42 2.91Q16.04 3.16 16.50 3.73L16.50 3.73L16.50 3.73Q16.95 4.31 17.10 5.22L17.10 5.22L15.80 5.67L15.80 5.67Q15.65 4.87 15.24 4.47L15.24 4.47L15.24 4.47Q14.84 4.07 14.12 4.07L14.12 4.07L14.12 4.07Q13.47 4.07 13.15 4.44L13.15 4.44L13.15 4.44Q12.82 4.82 12.82 5.37L12.82 5.37L12.82 5.37Q12.82 5.78 13.04 6.08L13.04 6.08L13.04 6.08Q13.25 6.39 13.58 6.61L13.58 6.61L13.58 6.61Q13.91 6.84 14.51 7.16L14.51 7.16L14.94 7.41L14.94 7.41Q15.65 7.82 16.13 8.22L16.13 8.22L16.13 8.22Q16.61 8.61 16.94 9.26L16.94 9.26L16.94 9.26Q17.27 9.90 17.27 10.81L17.27 10.81L17.27 10.81Q17.27 11.74 16.91 12.44L16.91 12.44L16.91 12.44Q16.55 13.15 15.86 13.53L15.86 13.53L15.86 13.53Q15.17 13.92 14.21 13.92L14.21 13.92ZM20.28 13.78L20.28 4.29L17.89 4.29L17.89 2.80L24.38 2.80L24.38 4.29L21.99 4.29L21.99 13.78L20.28 13.78ZM33.78 13.78L33.27 11.52L30.00 11.52L29.48 13.78L27.72 13.78L30.52 2.80L32.75 2.80L35.55 13.78L33.78 13.78ZM30.32 10.12L32.96 10.12L31.80 4.99L31.68 4.12L31.64 4.12L31.49 4.99L30.32 10.12ZM39.50 13.92L39.50 13.92Q38.71 13.92 38.00 13.63L38.00 13.63L38.00 13.63Q37.30 13.34 36.79 12.66L36.79 12.66L36.79 12.66Q36.27 11.98 36.09 10.87L36.09 10.87L37.52 10.37L37.52 10.37Q37.71 11.44 38.24 11.95L38.24 11.95L38.24 11.95Q38.77 12.46 39.50 12.46L39.50 12.46L39.50 12.46Q40.17 12.46 40.53 12.06L40.53 12.06L40.53 12.06Q40.88 11.66 40.88 10.88L40.88 10.88L40.88 10.88Q40.88 10.30 40.64 9.90L40.64 9.90L40.64 9.90Q40.40 9.49 40.02 9.21L40.02 9.21L40.02 9.21Q39.64 8.94 38.97 8.57L38.97 8.57L38.81 8.48L38.81 8.48Q38.08 8.07 37.61 7.73L37.61 7.73L37.61 7.73Q37.15 7.39 36.82 6.84L36.82 6.84L36.82 6.84Q36.49 6.28 36.49 5.48L36.49 5.48L36.49 5.48Q36.49 4.16 37.22 3.41L37.22 3.41L37.22 3.41Q37.95 2.66 39.38 2.66L39.38 2.66L39.38 2.66Q40.09 2.66 40.71 2.91L40.71 2.91L40.71 2.91Q41.33 3.16 41.78 3.73L41.78 3.73L41.78 3.73Q42.23 4.31 42.39 5.22L42.39 5.22L41.08 5.67L41.08 5.67Q40.93 4.87 40.53 4.47L40.53 4.47L40.53 4.47Q40.13 4.07 39.41 4.07L39.41 4.07L39.41 4.07Q38.76 4.07 38.43 4.44L38.43 4.44L38.43 4.44Q38.10 4.82 38.10 5.37L38.10 5.37L38.10 5.37Q38.10 5.78 38.32 6.08L38.32 6.08L38.32 6.08Q38.54 6.39 38.87 6.61L38.87 6.61L38.87 6.61Q39.20 6.84 39.79 7.16L39.79 7.16L40.23 7.41L40.23 7.41Q40.93 7.82 41.42 8.22L41.42 8.22L41.42 8.22Q41.90 8.61 42.23 9.26L42.23 9.26L42.23 9.26Q42.56 9.90 42.56 10.81L42.56 10.81L42.56 10.81Q42.56 11.74 42.20 12.44L42.20 12.44L42.20 12.44Q41.84 13.15 41.15 13.53L41.15 13.53L41.15 13.53Q40.46 13.92 39.50 13.92L39.50 13.92ZM46.81 13.92L46.81 13.92Q46.01 13.92 45.31 13.63L45.31 13.63L45.31 13.63Q44.61 13.34 44.10 12.66L44.10 12.66L44.10 12.66Q43.58 11.98 43.39 10.87L43.39 10.87L44.83 10.37L44.83 10.37Q45.02 11.44 45.55 11.95L45.55 11.95L45.55 11.95Q46.08 12.46 46.81 12.46L46.81 12.46L46.81 12.46Q47.48 12.46 47.83 12.06L47.83 12.06L47.83 12.06Q48.19 11.66 48.19 10.88L48.19 10.88L48.19 10.88Q48.19 10.30 47.95 9.90L47.95 9.90L47.95 9.90Q47.71 9.49 47.33 9.21L47.33 9.21L47.33 9.21Q46.95 8.94 46.28 8.57L46.28 8.57L46.12 8.48L46.12 8.48Q45.38 8.07 44.92 7.73L44.92 7.73L44.92 7.73Q44.45 7.39 44.13 6.84L44.13 6.84L44.13 6.84Q43.80 6.28 43.80 5.48L43.80 5.48L43.80 5.48Q43.80 4.16 44.53 3.41L44.53 3.41L44.53 3.41Q45.26 2.66 46.69 2.66L46.69 2.66L46.69 2.66Q47.39 2.66 48.02 2.91L48.02 2.91L48.02 2.91Q48.64 3.16 49.09 3.73L49.09 3.73L49.09 3.73Q49.54 4.31 49.70 5.22L49.70 5.22L48.39 5.67L48.39 5.67Q48.24 4.87 47.84 4.47L47.84 4.47L47.84 4.47Q47.43 4.07 46.72 4.07L46.72 4.07L46.72 4.07Q46.07 4.07 45.74 4.44L45.74 4.44L45.74 4.44Q45.41 4.82 45.41 5.37L45.41 5.37L45.41 5.37Q45.41 5.78 45.63 6.08L45.63 6.08L45.63 6.08Q45.85 6.39 46.18 6.61L46.18 6.61L46.18 6.61Q46.50 6.84 47.10 7.16L47.10 7.16L47.54 7.41L47.54 7.41Q48.24 7.82 48.72 8.22L48.72 8.22L48.72 8.22Q49.21 8.61 49.54 9.26L49.54 9.26L49.54 9.26Q49.87 9.90 49.87 10.81L49.87 10.81L49.87 10.81Q49.87 11.74 49.51 12.44L49.51 12.44L49.51 12.44Q49.14 13.15 48.45 13.53L48.45 13.53L48.45 13.53Q47.76 13.92 46.81 13.92L46.81 13.92ZM51.51 13.78L51.51 2.80L53.20 2.80L53.20 13.78L51.51 13.78ZM58.12 13.92L58.12 13.92Q57.33 13.92 56.63 13.63L56.63 13.63L56.63 13.63Q55.92 13.34 55.41 12.66L55.41 12.66L55.41 12.66Q54.89 11.98 54.71 10.87L54.71 10.87L56.14 10.37L56.14 10.37Q56.33 11.44 56.86 11.95L56.86 11.95L56.86 11.95Q57.39 12.46 58.13 12.46L58.13 12.46L58.13 12.46Q58.80 12.46 59.15 12.06L59.15 12.06L59.15 12.06Q59.50 11.66 59.50 10.88L59.50 10.88L59.50 10.88Q59.50 10.30 59.26 9.90L59.26 9.90L59.26 9.90Q59.02 9.49 58.64 9.21L58.64 9.21L58.64 9.21Q58.26 8.94 57.59 8.57L57.59 8.57L57.44 8.48L57.44 8.48Q56.70 8.07 56.23 7.73L56.23 7.73L56.23 7.73Q55.77 7.39 55.44 6.84L55.44 6.84L55.44 6.84Q55.11 6.28 55.11 5.48L55.11 5.48L55.11 5.48Q55.11 4.16 55.84 3.41L55.84 3.41L55.84 3.41Q56.57 2.66 58.00 2.66L58.00 2.66L58.00 2.66Q58.71 2.66 59.33 2.91L59.33 2.91L59.33 2.91Q59.95 3.16 60.40 3.73L60.40 3.73L60.40 3.73Q60.85 4.31 61.01 5.22L61.01 5.22L59.71 5.67L59.71 5.67Q59.55 4.87 59.15 4.47L59.15 4.47L59.15 4.47Q58.75 4.07 58.03 4.07L58.03 4.07L58.03 4.07Q57.38 4.07 57.05 4.44L57.05 4.44L57.05 4.44Q56.72 4.82 56.72 5.37L56.72 5.37L56.72 5.37Q56.72 5.78 56.94 6.08L56.94 6.08L56.94 6.08Q57.16 6.39 57.49 6.61L57.49 6.61L57.49 6.61Q57.82 6.84 58.41 7.16L58.41 7.16L58.85 7.41L58.85 7.41Q59.55 7.82 60.04 8.22L60.04 8.22L60.04 8.22Q60.52 8.61 60.85 9.26L60.85 9.26L60.85 9.26Q61.18 9.90 61.18 10.81L61.18 10.81L61.18 10.81Q61.18 11.74 60.82 12.44L60.82 12.44L60.82 12.44Q60.46 13.15 59.77 13.53L59.77 13.53L59.77 13.53Q59.08 13.92 58.12 13.92L58.12 13.92ZM64.19 13.78L64.19 4.29L61.80 4.29L61.80 2.80L68.28 2.80L68.28 4.29L65.90 4.29L65.90 13.78L64.19 13.78Z"></path></g> <!----> <g data-v-5f19e91b="" id="f182a0c5-b533-4b51-f6cb-ca37ecb2ff5d" transform="matrix(0.6222222222222222,0,0,0.6222222222222222,-10.911111111111111,-1.9111111111111114)" stroke="none" fill="white"><g><path d="M38.071,18.629A1,1,0,0,1,39,18h2a1,1,0,0,1,.929.629l.071.178V18c0-1.494-.26-4-2-4a1,1,0,0,1-1-1H37a1,1,0,0,1-1,1c-1.74,0-2,2.506-2,4v.648l2.709,3.387Z"></path><path d="M23,18h2a1,1,0,0,1,.857.485L28,22.057V15l-2.4,1.8a1,1,0,0,1-1.2-1.6L28,12.5V10l-2.4,1.8a1,1,0,0,1-1.2-1.6L28,7.5V7a3,3,0,0,0-6,0V18.807l.071-.178A1,1,0,0,1,23,18Z"></path><rect x="37" y="9" width="2" height="2"></rect><path d="M45.677,20l-1.748,4.371a1,1,0,0,1-1.858,0L40.323,20h-.646l-1.748,4.371a1,1,0,0,1-.783.618,1.01,1.01,0,0,1-.927-.364L32.48,20l-3.7,4.625a1.018,1.018,0,0,1-.848.373,1,1,0,0,1-.79-.483L24.434,20h-.757l-1.748,4.371a1,1,0,0,1-1.858,0L18.323,20H18V59a1,1,0,0,0,1,1H45a1,1,0,0,0,1-1V20ZM42,45a3,3,0,0,1-3,3H25a3,3,0,0,1-3-3V33a3,3,0,0,1,3-3H39a3,3,0,0,1,3,3Z"></path><path d="M39,32H25a1,1,0,0,0-1,1V45a1,1,0,0,0,1,1H39a1,1,0,0,0,1-1V33A1,1,0,0,0,39,32ZM37,42H27a1,1,0,0,1,0-2H37a1,1,0,0,1,0,2Zm0-4H27a1,1,0,0,1,0-2H37a1,1,0,0,1,0,2Z"></path></g></g></svg>