<svg data-v-1084b650="" xmlns="http://www.w3.org/2000/svg" viewBox="0 0 300 300"><!----> <!----> <rect data-v-1084b650="" fill="#FFFFFF" x="0" y="0" width="300px" height="300px" class="logo-background-square"></rect> <!----> <linearGradient data-v-1084b650="" gradientTransform="rotate(25)" id="3335ecd5-4225-e5ab-bf0d-cf532dda0462" x1="0%" y1="0%" x2="100%" y2="0%"><stop data-v-1084b650="" offset="0%" style="stop-color: rgb(252, 183, 53); stop-opacity: 1;"></stop> <stop data-v-1084b650="" offset="100%" style="stop-color: rgb(215, 91, 27); stop-opacity: 1;"></stop></linearGradient> <g data-v-1084b650="" id="2f610ff3-b008-71e2-301a-1c04a6403ff8" fill="url(#3335ecd5-4225-e5ab-bf0d-cf532dda0462)" stroke="none" transform="matrix(0.7999999999999998,0,0,0.7999999999999998,30.00000000000003,30.00000000000003)"><svg xmlns="http://www.w3.org/2000/svg" viewBox="0 0 64 64"><path d="M38.071 18.629A1 1 0 0 1 39 18h2a1 1 0 0 1 .929.629l.071.178V18c0-1.494-.26-4-2-4a1 1 0 0 1-1-1h-2a1 1 0 0 1-1 1c-1.74 0-2 2.506-2 4v.648l2.709 3.387zM23 18h2a1 1 0 0 1 .857.485L28 22.057V15l-2.4 1.8a1 1 0 0 1-1.2-1.6l3.6-2.7V10l-2.4 1.8a1 1 0 0 1-1.2-1.6L28 7.5V7a3 3 0 0 0-6 0v11.807l.071-.178A1 1 0 0 1 23 18zM37 9h2v2h-2z"></path><path d="M45.677 20l-1.748 4.371a1 1 0 0 1-1.858 0L40.323 20h-.646l-1.748 4.371a1 1 0 0 1-.783.618 1.01 1.01 0 0 1-.927-.364L32.48 20l-3.7 4.625a1.018 1.018 0 0 1-.848.373 1 1 0 0 1-.79-.483L24.434 20h-.757l-1.748 4.371a1 1 0 0 1-1.858 0L18.323 20H18v39a1 1 0 0 0 1 1h26a1 1 0 0 0 1-1V20zM42 45a3 3 0 0 1-3 3H25a3 3 0 0 1-3-3V33a3 3 0 0 1 3-3h14a3 3 0 0 1 3 3z"></path><path d="M39 32H25a1 1 0 0 0-1 1v12a1 1 0 0 0 1 1h14a1 1 0 0 0 1-1V33a1 1 0 0 0-1-1zm-2 10H27a1 1 0 0 1 0-2h10a1 1 0 0 1 0 2zm0-4H27a1 1 0 0 1 0-2h10a1 1 0 0 1 0 2z"></path></svg></g></svg>