<svg data-v-1084b650="" xmlns="http://www.w3.org/2000/svg" viewBox="0 0 300 300"><!----> <!----> <rect data-v-1084b650="" fill="#EE9300" x="0" y="0" width="300px" height="300px" class="logo-background-square"></rect> <!----> <!----> <g data-v-1084b650="" id="fcc7fee4-ea8f-abcf-c1c8-b7320158956a" fill="#F11805" stroke="none" transform="matrix(0.7499999999999998,0,0,0.7499999999999998,37.50000000000003,37.50000000000003)"><svg xmlns="http://www.w3.org/2000/svg" viewBox="0 0 64 64"><path d="M22 33v12a3 3 0 0 0 3 3h14a3 3 0 0 0 3-3V33a3 3 0 0 0-3-3H25a3 3 0 0 0-3 3zm18 0v12a1 1 0 0 1-1 1H25a1 1 0 0 1-1-1V33a1 1 0 0 1 1-1h14a1 1 0 0 1 1 1z"></path><path d="M27 38h10a1 1 0 0 0 0-2H27a1 1 0 0 0 0 2zM27 42h10a1 1 0 0 0 0-2H27a1 1 0 0 0 0 2z"></path><path d="M25 2a5.006 5.006 0 0 0-5 5v11.807l-.071-.178A1 1 0 0 0 19 18h-2a1 1 0 0 0-1 1v40a3 3 0 0 0 3 3h26a3 3 0 0 0 3-3V19a1 1 0 0 0-1-1h-2a1 1 0 0 0-.929.629l-.071.178V18c0-3.281-1.079-5.357-3-5.874V8a1 1 0 0 0-1-1h-4a1 1 0 0 0-1 1v4.126c-1.921.517-3 2.593-3 5.874a1 1 0 0 0-.781.375L30 19.9V7a5.006 5.006 0 0 0-5-5zm0 2a3 3 0 0 1 3 3v.5l-3.6 2.7a1 1 0 1 0 1.2 1.6L28 10v2.5l-3.6 2.7a1 1 0 1 0 1.2 1.6L28 15v7.058l-2.143-3.572A1 1 0 0 0 25 18h-2a1 1 0 0 0-.929.629l-.071.178V7a3 3 0 0 1 3-3zm12 5h2v2h-2zm-1 5a1 1 0 0 0 1-1h2a1 1 0 0 0 1 1c1.74 0 2 2.506 2 4v.807l-.071-.178A1 1 0 0 0 41 18h-2a1 1 0 0 0-.929.629l-1.362 3.406L34 18.648V18c0-1.494.26-4 2-4zm-3.52 6l3.739 4.625a1.01 1.01 0 0 0 .927.364 1 1 0 0 0 .783-.618L39.677 20h.646l1.748 4.371a1 1 0 0 0 1.858 0L45.677 20H46v39a1 1 0 0 1-1 1H19a1 1 0 0 1-1-1V20h.323l1.748 4.371a1 1 0 0 0 1.858 0L23.677 20h.757l2.709 4.515a1 1 0 0 0 .79.483 1.018 1.018 0 0 0 .848-.373z"></path></svg></g></svg>