<svg data-v-5f19e91b="" xmlns="http://www.w3.org/2000/svg" width="391" height="35" viewBox="0 0 391 35"><!----> <!----> <!----> <g data-v-5f19e91b="" id="679f7243-9011-f3ca-ec4b-6dbc7eacc2fb" fill="white" transform="matrix(5.7915059834320255,0,0,5.7915059834320255,34.58438295261462,-32.84804832772376)"><path d="M6.80 11.45L6.80 13.72L0.49 13.72L0.49 13.09L1.67 12.75L1.67 6.08L0.49 5.75L0.49 5.12L4.75 5.12L4.75 5.75L3.56 6.08L3.56 12.75L5.66 12.75L6.02 11.45L6.80 11.45ZM9.25 5.80L9.25 5.80Q8.78 5.80 8.41 5.47L8.41 5.47L8.41 5.47Q8.05 5.14 8.05 4.68L8.05 4.68L8.05 4.68Q8.05 4.20 8.41 3.85L8.41 3.85L8.41 3.85Q8.78 3.50 9.25 3.50L9.25 3.50L9.25 3.50Q9.73 3.50 10.07 3.85L10.07 3.85L10.07 3.85Q10.40 4.20 10.40 4.68L10.40 4.68L10.40 4.68Q10.40 5.15 10.07 5.47L10.07 5.47L10.07 5.47Q9.73 5.80 9.25 5.80L9.25 5.80ZM11.30 13.72L7.22 13.72L7.22 13.02L8.32 12.74L8.32 8.06L7.22 7.91L7.22 7.24L9.59 6.69L10.21 6.69L10.21 12.74L11.30 13.02L11.30 13.72ZM14.78 7.63L14.78 7.63Q14.25 7.63 13.94 7.83L13.94 7.83L13.94 7.83Q13.64 8.04 13.64 8.39L13.64 8.39L13.64 8.39Q13.64 8.68 13.78 8.88L13.78 8.88L13.78 8.88Q13.93 9.07 14.29 9.20L14.29 9.20L15.89 9.70L15.89 9.70Q16.62 9.93 16.96 10.38L16.96 10.38L16.96 10.38Q17.30 10.84 17.30 11.68L17.30 11.68L17.30 11.68Q17.30 12.68 16.53 13.27L16.53 13.27L16.53 13.27Q15.76 13.86 14.39 13.86L14.39 13.86L14.39 13.86Q13.85 13.86 13.20 13.77L13.20 13.77L13.20 13.77Q12.54 13.68 12.05 13.51L12.05 13.51L12.22 11.56L13.03 11.56L13.33 12.74L13.33 12.74Q13.80 12.91 14.34 12.91L14.34 12.91L14.34 12.91Q15.71 12.91 15.71 12.05L15.71 12.05L15.71 12.05Q15.71 11.75 15.55 11.61L15.55 11.61L15.55 11.61Q15.39 11.47 14.94 11.31L14.94 11.31L13.41 10.79L13.41 10.79Q12.74 10.57 12.40 10.12L12.40 10.12L12.40 10.12Q12.07 9.66 12.07 8.90L12.07 8.90L12.07 8.90Q12.07 7.87 12.75 7.28L12.75 7.28L12.75 7.28Q13.44 6.69 14.81 6.69L14.81 6.69L14.81 6.69Q15.36 6.69 15.94 6.80L15.94 6.80L15.94 6.80Q16.52 6.90 17.01 7.10L17.01 7.10L16.81 8.86L16.03 8.86L15.75 7.83L15.75 7.83Q15.51 7.73 15.30 7.68L15.30 7.68L15.30 7.68Q15.09 7.63 14.78 7.63L14.78 7.63ZM22.23 13.54L22.23 13.54Q21.80 13.68 21.22 13.76L21.22 13.76L21.22 13.76Q20.64 13.85 20.23 13.85L20.23 13.85L20.23 13.85Q19.50 13.85 19.24 13.54L19.24 13.54L19.24 13.54Q18.98 13.24 18.98 12.75L18.98 12.75L18.98 7.84L17.98 7.84L17.98 7.18L19.14 6.66L19.99 5.26L20.85 5.26L20.85 6.83L22.43 6.83L22.43 7.92L20.85 7.83L20.85 12.53L22.23 12.84L22.23 13.54ZM27.41 11.58L27.02 12.77L27.97 13.09L27.97 13.72L24.89 13.72L24.89 13.10L25.89 12.75L28.53 5.12L29.62 4.94L32.49 12.75L33.49 13.09L33.49 13.72L29.60 13.72L29.60 13.09L30.51 12.81L30.10 11.58L27.41 11.58ZM29.82 10.82L28.70 7.80L27.68 10.82L29.82 10.82ZM36.65 7.63L36.65 7.63Q36.12 7.63 35.81 7.83L35.81 7.83L35.81 7.83Q35.50 8.04 35.50 8.39L35.50 8.39L35.50 8.39Q35.50 8.68 35.65 8.88L35.65 8.88L35.65 8.88Q35.80 9.07 36.16 9.20L36.16 9.20L37.76 9.70L37.76 9.70Q38.49 9.93 38.83 10.38L38.83 10.38L38.83 10.38Q39.17 10.84 39.17 11.68L39.17 11.68L39.17 11.68Q39.17 12.68 38.40 13.27L38.40 13.27L38.40 13.27Q37.63 13.86 36.26 13.86L36.26 13.86L36.26 13.86Q35.71 13.86 35.06 13.77L35.06 13.77L35.06 13.77Q34.41 13.68 33.92 13.51L33.92 13.51L34.09 11.56L34.90 11.56L35.20 12.74L35.20 12.74Q35.67 12.91 36.20 12.91L36.20 12.91L36.20 12.91Q37.58 12.91 37.58 12.05L37.58 12.05L37.58 12.05Q37.58 11.75 37.41 11.61L37.41 11.61L37.41 11.61Q37.25 11.47 36.81 11.31L36.81 11.31L35.28 10.79L35.28 10.79Q34.61 10.57 34.27 10.12L34.27 10.12L34.27 10.12Q33.94 9.66 33.94 8.90L33.94 8.90L33.94 8.90Q33.94 7.87 34.62 7.28L34.62 7.28L34.62 7.28Q35.31 6.69 36.68 6.69L36.68 6.69L36.68 6.69Q37.23 6.69 37.81 6.80L37.81 6.80L37.81 6.80Q38.39 6.90 38.88 7.10L38.88 7.10L38.68 8.86L37.90 8.86L37.62 7.83L37.62 7.83Q37.38 7.73 37.17 7.68L37.17 7.68L37.17 7.68Q36.96 7.63 36.65 7.63L36.65 7.63ZM42.95 7.63L42.95 7.63Q42.42 7.63 42.11 7.83L42.11 7.83L42.11 7.83Q41.80 8.04 41.80 8.39L41.80 8.39L41.80 8.39Q41.80 8.68 41.95 8.88L41.95 8.88L41.95 8.88Q42.10 9.07 42.46 9.20L42.46 9.20L44.06 9.70L44.06 9.70Q44.79 9.93 45.13 10.38L45.13 10.38L45.13 10.38Q45.47 10.84 45.47 11.68L45.47 11.68L45.47 11.68Q45.47 12.68 44.70 13.27L44.70 13.27L44.70 13.27Q43.93 13.86 42.56 13.86L42.56 13.86L42.56 13.86Q42.01 13.86 41.36 13.77L41.36 13.77L41.36 13.77Q40.71 13.68 40.22 13.51L40.22 13.51L40.39 11.56L41.20 11.56L41.50 12.74L41.50 12.74Q41.97 12.91 42.50 12.91L42.50 12.91L42.50 12.91Q43.88 12.91 43.88 12.05L43.88 12.05L43.88 12.05Q43.88 11.75 43.71 11.61L43.71 11.61L43.71 11.61Q43.55 11.47 43.11 11.31L43.11 11.31L41.58 10.79L41.58 10.79Q40.91 10.57 40.57 10.12L40.57 10.12L40.57 10.12Q40.24 9.66 40.24 8.90L40.24 8.90L40.24 8.90Q40.24 7.87 40.92 7.28L40.92 7.28L40.92 7.28Q41.61 6.69 42.98 6.69L42.98 6.69L42.98 6.69Q43.53 6.69 44.11 6.80L44.11 6.80L44.11 6.80Q44.69 6.90 45.18 7.10L45.18 7.10L44.98 8.86L44.20 8.86L43.92 7.83L43.92 7.83Q43.68 7.73 43.47 7.68L43.47 7.68L43.47 7.68Q43.26 7.63 42.95 7.63L42.95 7.63ZM48.33 5.80L48.33 5.80Q47.85 5.80 47.49 5.47L47.49 5.47L47.49 5.47Q47.12 5.14 47.12 4.68L47.12 4.68L47.12 4.68Q47.12 4.20 47.49 3.85L47.49 3.85L47.49 3.85Q47.85 3.50 48.33 3.50L48.33 3.50L48.33 3.50Q48.80 3.50 49.14 3.85L49.14 3.85L49.14 3.85Q49.48 4.20 49.48 4.68L49.48 4.68L49.48 4.68Q49.48 5.15 49.14 5.47L49.14 5.47L49.14 5.47Q48.80 5.80 48.33 5.80L48.33 5.80ZM50.37 13.72L46.30 13.72L46.30 13.02L47.39 12.74L47.39 8.06L46.30 7.91L46.30 7.24L48.66 6.69L49.28 6.69L49.28 12.74L50.37 13.02L50.37 13.72ZM53.86 7.63L53.86 7.63Q53.33 7.63 53.02 7.83L53.02 7.83L53.02 7.83Q52.71 8.04 52.71 8.39L52.71 8.39L52.71 8.39Q52.71 8.68 52.86 8.88L52.86 8.88L52.86 8.88Q53.00 9.07 53.37 9.20L53.37 9.20L54.96 9.70L54.96 9.70Q55.69 9.93 56.03 10.38L56.03 10.38L56.03 10.38Q56.38 10.84 56.38 11.68L56.38 11.68L56.38 11.68Q56.38 12.68 55.61 13.27L55.61 13.27L55.61 13.27Q54.84 13.86 53.47 13.86L53.47 13.86L53.47 13.86Q52.92 13.86 52.27 13.77L52.27 13.77L52.27 13.77Q51.62 13.68 51.13 13.51L51.13 13.51L51.30 11.56L52.11 11.56L52.40 12.74L52.40 12.74Q52.88 12.91 53.41 12.91L53.41 12.91L53.41 12.91Q54.78 12.91 54.78 12.05L54.78 12.05L54.78 12.05Q54.78 11.75 54.62 11.61L54.62 11.61L54.62 11.61Q54.46 11.47 54.01 11.31L54.01 11.31L52.49 10.79L52.49 10.79Q51.81 10.57 51.48 10.12L51.48 10.12L51.48 10.12Q51.14 9.66 51.14 8.90L51.14 8.90L51.14 8.90Q51.14 7.87 51.83 7.28L51.83 7.28L51.83 7.28Q52.51 6.69 53.89 6.69L53.89 6.69L53.89 6.69Q54.43 6.69 55.01 6.80L55.01 6.80L55.01 6.80Q55.59 6.90 56.08 7.10L56.08 7.10L55.89 8.86L55.10 8.86L54.82 7.83L54.82 7.83Q54.59 7.73 54.38 7.68L54.38 7.68L54.38 7.68Q54.17 7.63 53.86 7.63L53.86 7.63ZM61.31 13.54L61.31 13.54Q60.87 13.68 60.29 13.76L60.29 13.76L60.29 13.76Q59.71 13.85 59.30 13.85L59.30 13.85L59.30 13.85Q58.58 13.85 58.32 13.54L58.32 13.54L58.32 13.54Q58.06 13.24 58.06 12.75L58.06 12.75L58.06 7.84L57.05 7.84L57.05 7.18L58.21 6.66L59.07 5.26L59.92 5.26L59.92 6.83L61.50 6.83L61.50 7.92L59.92 7.83L59.92 12.53L61.31 12.84L61.31 13.54Z"></path></g> <!----> <g data-v-5f19e91b="" id="c295f2c5-8a71-401e-14c2-9af834d544a5" transform="matrix(0.6222222222222222,0,0,0.6222222222222222,-10.911111111111111,-1.9111111111111114)" stroke="none" fill="white"><path d="M38.071 18.629A1 1 0 0 1 39 18h2a1 1 0 0 1 .929.629l.071.178V18c0-1.494-.26-4-2-4a1 1 0 0 1-1-1h-2a1 1 0 0 1-1 1c-1.74 0-2 2.506-2 4v.648l2.709 3.387zM23 18h2a1 1 0 0 1 .857.485L28 22.057V15l-2.4 1.8a1 1 0 0 1-1.2-1.6l3.6-2.7V10l-2.4 1.8a1 1 0 0 1-1.2-1.6L28 7.5V7a3 3 0 0 0-6 0v11.807l.071-.178A1 1 0 0 1 23 18zM37 9h2v2h-2z"></path><path d="M45.677 20l-1.748 4.371a1 1 0 0 1-1.858 0L40.323 20h-.646l-1.748 4.371a1 1 0 0 1-.783.618 1.01 1.01 0 0 1-.927-.364L32.48 20l-3.7 4.625a1.018 1.018 0 0 1-.848.373 1 1 0 0 1-.79-.483L24.434 20h-.757l-1.748 4.371a1 1 0 0 1-1.858 0L18.323 20H18v39a1 1 0 0 0 1 1h26a1 1 0 0 0 1-1V20zM42 45a3 3 0 0 1-3 3H25a3 3 0 0 1-3-3V33a3 3 0 0 1 3-3h14a3 3 0 0 1 3 3z"></path><path d="M39 32H25a1 1 0 0 0-1 1v12a1 1 0 0 0 1 1h14a1 1 0 0 0 1-1V33a1 1 0 0 0-1-1zm-2 10H27a1 1 0 0 1 0-2h10a1 1 0 0 1 0 2zm0-4H27a1 1 0 0 1 0-2h10a1 1 0 0 1 0 2z"></path></g></svg>