<svg data-v-1084b650="" xmlns="http://www.w3.org/2000/svg" viewBox="0 0 300 300"><!----> <!----> <rect data-v-1084b650="" fill="#EBCF76" x="0" y="0" width="300px" height="300px" class="logo-background-square"></rect> <!----> <!----> <g data-v-1084b650="" id="18ac8222-18c7-8369-4ab5-c3f21ae38b4e" fill="#FEFEFE" stroke="none" transform="matrix(0.8499999999999999,0,0,0.8499999999999999,12.06284408569337,13.397752380371116)"><svg xmlns="http://www.w3.org/2000/svg" xmlns:xlink="http://www.w3.org/1999/xlink" version="1.1" x="0px" y="0px" viewBox="0 0 100 100" enable-background="new 0 0 100 100" xml:space="preserve"><g><path d="M77.343,54.012c-0.086,0.01-0.174,0.012-0.263,0.013c-0.261,0.011-0.518,0.027-0.771,0.053v-0.026   c-0.02,0.001-0.039,0.007-0.059,0.009V13c0-1.104-0.896-2-2-2H19c-1.104,0-2,0.896-2,2v58.25c0,0.128,0.015,0.251,0.038,0.372   c0.001,0.007,0,0.015,0.002,0.021c0.035,0.174,0.098,0.335,0.174,0.489c0.018,0.036,0.037,0.07,0.058,0.106   c0.089,0.154,0.19,0.301,0.316,0.426l17.497,17.498c0.093,0.093,0.195,0.176,0.305,0.249c0.039,0.026,0.082,0.044,0.122,0.066   c0.073,0.042,0.145,0.086,0.223,0.118c0.052,0.021,0.107,0.033,0.161,0.05c0.07,0.022,0.139,0.049,0.212,0.063   c0.125,0.025,0.251,0.038,0.378,0.038c0.005,0.001,0.009,0.002,0.014,0.002H55c0.034,0,0.065-0.009,0.1-0.01   c0.235,0.199,0.38,0.313,0.38,0.313c3.763,3.146,8.171,5.088,12.617,5.088c11.651,0.002,23.089-13.289,23.089-26.829   C91.186,58.192,82.711,54.033,77.343,54.012z M72.25,15v40.691c-0.075,0.054-0.124,0.091-0.124,0.091v-0.001   c-0.551,0.403-1.062,0.708-1.533,0.947c0.336-3.074-0.063-7.637-4.244-11.028c-0.797-0.652-1.987-0.531-2.64,0.278   c-0.65,0.803-0.526,1.986,0.279,2.637c3.293,2.67,3.135,6.504,2.735,8.615c-0.82-0.283-1.94-0.82-3.201-1.851   c-1.075-0.884-2.721-1.371-4.629-1.371C53.521,54.009,45,58.163,45,69.313c0,6.315,2.506,12.555,6.344,17.438H38.5v-15.5   c0-1.104-0.896-2-2-2H21V15H72.25z M34.5,73.25v10.672L23.829,73.25H34.5z M68.097,92.394c-9.581,0-19.345-11.646-19.345-23.081   c0-8.475,6.063-11.552,10.142-11.552c1.192,0,1.956,0.278,2.251,0.524c3.586,2.926,6.619,3.01,6.952,3.01   c0.334,0,3.366-0.084,6.944-3.014c0.297-0.242,1.063-0.521,2.26-0.521c4.072,0,10.135,3.077,10.135,11.553   C87.436,80.747,77.674,92.394,68.097,92.394z"></path><path fill="#000000" d="M81.074,66.521c-1.102,0.036-1.966,0.96-1.934,2.062c0.012,0.394,0.193,9.685-7.842,13.41   c-1.003,0.465-1.438,1.653-0.974,2.655c0.338,0.73,1.061,1.159,1.815,1.159c0.282,0,0.568-0.06,0.84-0.186   c10.476-4.856,10.176-16.675,10.158-17.176C83.099,67.345,82.168,66.476,81.074,66.521z"></path><path fill="#000000" d="M42.281,26h24.625c1.104,0,2-0.896,2-2s-0.896-2-2-2H42.281c-1.104,0-2,0.896-2,2S41.177,26,42.281,26z"></path><path fill="#000000" d="M27.805,29.914c0.39,0.391,0.902,0.586,1.414,0.586s1.024-0.195,1.414-0.586l7.125-7.125   c0.781-0.781,0.781-2.047,0-2.828c-0.78-0.781-2.048-0.781-2.828,0l-5.711,5.71l-1.461-1.46c-0.78-0.781-2.048-0.781-2.828,0   c-0.781,0.781-0.781,2.047,0,2.828L27.805,29.914z"></path><path fill="#000000" d="M42.281,41.625h24.625c1.104,0,2-0.896,2-2s-0.896-2-2-2H42.281c-1.104,0-2,0.896-2,2   S41.177,41.625,42.281,41.625z"></path><path fill="#000000" d="M35.758,35.586c-0.78-0.781-2.048-0.781-2.828,0l-2.148,2.148l-2.148-2.148   c-0.78-0.781-2.048-0.781-2.828,0c-0.781,0.781-0.781,2.047,0,2.828l2.148,2.148l-2.148,2.148c-0.781,0.781-0.781,2.047,0,2.828   c0.39,0.391,0.902,0.586,1.414,0.586s1.024-0.195,1.414-0.586l2.148-2.148l2.148,2.148c0.39,0.391,0.902,0.586,1.414,0.586   s1.024-0.195,1.414-0.586c0.781-0.781,0.781-2.047,0-2.828l-2.148-2.148l2.148-2.148C36.539,37.633,36.539,36.367,35.758,35.586z"></path></g></svg></g></svg>